<?xml version="1.0" encoding="UTF-8" standalone="no"?>
<svg
   width="511.26981"
   height="511.42297"
   viewBox="0 0 511.26981 511.42297"
   fill="none"
   version="1.1"
   id="svg2"
   sodipodi:docname="border.svg"
   inkscape:version="1.3.2 (091e20ef0f, 2023-11-25)"
   xmlns:inkscape="http://www.inkscape.org/namespaces/inkscape"
   xmlns:sodipodi="http://sodipodi.sourceforge.net/DTD/sodipodi-0.dtd"
   xmlns="http://www.w3.org/2000/svg"
   xmlns:svg="http://www.w3.org/2000/svg">
  <defs
     id="defs2" />
  <sodipodi:namedview
     id="namedview2"
     pagecolor="#ffffff"
     bordercolor="#000000"
     borderopacity="0.25"
     inkscape:showpageshadow="2"
     inkscape:pageopacity="0.0"
     inkscape:pagecheckerboard="0"
     inkscape:deskcolor="#d1d1d1"
     inkscape:zoom="2.1933594"
     inkscape:cx="236.85129"
     inkscape:cy="86.853072"
     inkscape:window-width="1906"
     inkscape:window-height="1339"
     inkscape:window-x="26"
     inkscape:window-y="23"
     inkscape:window-maximized="0"
     inkscape:current-layer="svg2" />
  <path
     d="m 506.72451,255.71149 c 0,64.03942 -0.007,111.68258 -3.96631,147.33113 -3.96403,35.68264 -11.80575,58.3467 -26.65639,73.20301 -14.85178,14.85517 -37.50893,22.69928 -73.1807,26.66453 -35.63768,3.96069 -83.26631,3.96751 -147.2862,3.96751 -64.0199,0 -111.64853,-0.007 -147.28621,-3.96751 C 72.677046,498.94491 50.019333,491.1008 35.168462,476.24563 20.317591,461.38932 12.475302,438.72526 8.5118349,403.04262 4.5520041,367.39407 4.5453008,319.75091 4.5453008,255.71149 c 0,-64.03942 0.0067,-111.68258 3.9665341,-147.33113 C 12.475302,72.697825 20.317591,50.033202 35.168462,35.177802 50.019333,20.322402 72.677046,12.47772 108.3487,8.5130447 143.98638,4.5520062 191.61501,4.5453008 255.63491,4.5453008 c 64.01989,0 111.64852,0.00671 147.2862,3.9677439 35.67177,3.9646753 58.32892,11.8093573 73.1807,26.6647573 14.85064,14.8554 22.69236,37.520023 26.65639,73.202558 3.95949,35.64855 3.96631,83.29171 3.96631,147.33113 z"
     fill="#D8F6FF"
     stroke="#32a8eb"
     stroke-width="9.0906"
     stroke-linejoin="round"
     id="path1"
     style="fill:none;fill-opacity:0" />
</svg>
