<svg width="512" height="512" viewBox="0 0 512 512" fill="none" xmlns="http://www.w3.org/2000/svg">
<path d="M477 256C477 312.348 476.994 354.269 473.509 385.636C470.02 417.033 463.118 436.975 450.047 450.047C436.975 463.118 417.033 470.02 385.636 473.509C354.269 476.994 312.348 477 256 477C199.652 477 157.731 476.994 126.364 473.509C94.9671 470.02 75.0246 463.118 61.9534 450.047C48.8822 436.975 41.9797 417.033 38.4912 385.636C35.0059 354.269 35 312.348 35 256C35 199.652 35.0059 157.731 38.4912 126.364C41.9797 94.9671 48.8822 75.0246 61.9534 61.9534C75.0246 48.8822 94.9671 41.9797 126.364 38.4912C157.731 35.0059 199.652 35 256 35C312.348 35 354.269 35.0059 385.636 38.4912C417.033 41.9797 436.975 48.8822 450.047 61.9534C463.118 75.0246 470.02 94.9671 473.509 126.364C476.994 157.731 477 199.652 477 256Z" fill="#D8F6FF" stroke="#32A8EB" stroke-width="8" stroke-linejoin="round"/>
<path d="M347.694 326.566H360V235.186C360 203.566 340.791 185 310.176 185C290.066 185 270.257 193.413 256.15 208.208C248.046 193.123 232.739 185 212.629 185C194.62 185 177.212 191.382 163.405 202.696L161.004 187.031H152V326.566H164.306V212.269C176.912 201.535 193.12 195.153 209.628 195.153C234.84 195.153 249.847 210.528 249.847 236.927V326.566H262.153V235.186C262.153 227.934 261.253 221.262 259.152 215.46C272.058 202.696 289.466 195.153 307.175 195.153C332.687 195.153 347.694 210.528 347.694 236.927V326.566Z" fill="#32A8EB"/>
</svg>
